<svg xmlns="http://www.w3.org/2000/svg" width="267" height="370" viewBox="0 0 267 370" fill="none">
    <path d="M84.7651 40.5976C82.8984 40.5976 81.2878 39.3494 80.5758 37.6238C76.6929 28.2145 68.2467 22.5771 56.4086 22.5771C38.0984 22.5771 25.6405 36.6575 25.6405 61.5733C25.6405 86.6629 37.7507 100.801 56.6983 100.801C73.502 100.801 83.6422 91.2984 83.9898 76.3489H63.9143C60.8251 76.3489 58.3208 73.8446 58.3208 70.7554V63.2845C58.3208 60.1953 60.8251 57.691 63.9143 57.691H103.61C105.926 57.691 107.805 59.5693 107.805 61.8862V72.5246C107.805 103.698 86.4235 122.646 56.5245 122.646C23.2069 122.646 0.666748 99.3526 0.666748 61.8051C0.666748 23.3304 24.7134 0.732361 56.003 0.732361C81.5469 0.732361 101.498 15.7154 106.142 37.4256C106.498 39.0881 105.185 40.5976 103.485 40.5976H84.7651Z" fill="#5BAEEA"/>
    <path d="M138.333 121.024C136.46 121.024 134.814 119.782 134.3 117.981L102.29 5.91969C101.78 4.13312 103.121 2.35479 104.979 2.35479H123.745C126.333 2.35479 128.582 4.12967 129.185 6.64622L148.032 85.3882H149.075L169.767 6.52869C170.412 4.06947 172.635 2.35479 175.177 2.35479H189.723C192.266 2.35479 194.489 4.07041 195.134 6.53054L215.827 85.504H216.812L235.66 6.64794C236.262 4.13056 238.512 2.35479 241.1 2.35479H259.865C261.723 2.35479 263.064 4.13312 262.554 5.91969L230.544 117.981C230.03 119.782 228.384 121.024 226.51 121.024H208.779C206.913 121.024 205.271 119.79 204.75 117.997L182.914 42.7416H181.987L160.151 117.997C159.631 119.79 157.989 121.024 156.123 121.024H138.333Z" fill="#5BAEEA"/>
    <path d="M45.4611 245.479H7.82087C5.50397 245.479 3.62574 243.601 3.62574 241.284V131.005C3.62574 128.688 5.50396 126.81 7.82087 126.81H45.8667C81.618 126.81 103.463 149.061 103.463 186.029C103.463 223.113 81.618 245.479 45.4611 245.479ZM28.2518 224.329H44.4181C66.9582 224.329 78.8367 212.625 78.8367 186.029C78.8367 159.606 66.9582 147.96 44.534 147.96H28.2518V224.329Z" fill="#5BAEEA"/>
    <path d="M193.138 168.182C191.067 168.182 189.343 166.659 188.774 164.668C185.616 153.619 176.154 147.033 163.639 147.033C145.155 147.033 132.929 161.171 132.929 186.145C132.929 211.756 145.329 225.257 163.523 225.257C175.731 225.257 185.215 219.14 188.677 208.469C189.301 206.546 191.005 205.099 193.026 205.108L209.716 205.186C212.235 205.198 214.19 207.418 213.62 209.871C208.979 229.868 191.093 247.101 163.117 247.101C131.364 247.101 107.955 224.793 107.955 186.145C107.955 147.438 131.77 125.188 163.117 125.188C188.862 125.188 208.651 139.102 213.688 163.499C214.197 165.968 212.232 168.182 209.712 168.182H193.138Z" fill="#5BAEEA"/>
    <path d="M263.624 126.81C265.483 126.81 266.824 128.589 266.313 130.376L234.446 241.76C233.759 244.16 231.565 245.815 229.068 245.815H213.222C211.364 245.815 210.022 244.036 210.534 242.249L242.401 130.865C243.088 128.465 245.282 126.81 247.779 126.81H263.624Z" fill="#5BAEEA"/>
    <path d="M6.35477 369.934C4.0432 369.934 2.16719 368.064 2.15966 365.753L2.12538 355.228C2.11898 353.264 2.93858 351.388 4.38378 350.059L44.7619 312.918C55.7712 302.314 61.7394 295.766 61.7974 286.264C61.7394 275.776 53.7432 269.286 42.9657 269.286C33.2275 269.286 26.3892 274.603 24.8229 283.514C24.4203 285.804 22.5904 287.712 20.2651 287.712H5.25704C2.94422 287.712 1.04421 285.835 1.25447 283.532C3.15512 262.712 19.7524 249.643 43.1395 249.643C68.6348 249.643 85.4964 264.129 85.5543 284.699C85.4964 298.2 78.9487 309.325 54.4965 331.46L36.418 348.901V349.712H81.5832C84.6724 349.712 87.1767 352.216 87.1767 355.305V365.739C87.1767 368.056 85.2985 369.934 82.9816 369.934H6.35477Z" fill="#4DD773"/>
    <path d="M95.0571 348.677C91.9679 348.677 89.4636 346.172 89.4636 343.083V330.658C89.4636 329.739 89.6448 328.829 89.9968 327.98L120.827 253.63C121.477 252.063 123.006 251.042 124.702 251.042H141.496C143.483 251.042 144.836 253.055 144.085 254.895L114.263 327.991V328.918H143.56V299.737C143.56 297.421 145.438 295.542 147.755 295.542H161.847C164.164 295.542 166.042 297.421 166.042 299.737V328.918H175.804C178.893 328.918 181.397 331.422 181.397 334.511V344.482C181.397 346.798 179.519 348.677 177.202 348.677H166.042V364.117C166.042 367.206 163.538 369.71 160.448 369.71H147.118C144.801 369.71 142.922 367.832 142.922 365.515V348.677H95.0571Z" fill="#4DD773"/>
</svg>