<svg width="346" height="457" viewBox="0 0 346 457" fill="none" xmlns="http://www.w3.org/2000/svg">
<path d="M4.94885 285.898C4.94885 293.058 7.1585 299.71 10.9345 305.206C11.1304 305.491 11.1286 305.82 11.0043 306.048C7.56528 312.357 5.10873 319.469 3.84717 327.341C0.102273 350.709 19.8815 365.713 37.2431 365.713C37.3634 365.713 37.418 365.744 37.4483 365.766C37.4907 365.797 37.5389 365.852 37.5703 365.932C37.6018 366.013 37.6033 366.084 37.5935 366.132C37.5868 366.165 37.5698 366.221 37.4833 366.301L15.6619 386.302C8.25353 393.093 4.05017 402.677 4.08297 412.711L4.12287 424.916C4.17635 441.279 17.5002 454.5 33.8991 454.5H119.962C133.764 454.5 145.375 445.14 148.749 432.433C148.873 431.966 149.225 431.787 149.442 431.787H161.16C161.377 431.787 161.73 431.966 161.854 432.433C165.228 445.14 176.838 454.5 190.641 454.5H205.526C221.284 454.5 234.563 443.916 238.594 429.484C238.662 429.241 238.84 429.022 239.094 428.902C249.113 424.131 256.049 413.931 256.049 402.107V391.34C256.049 379.224 249.727 368.583 240.209 362.509C239.94 362.338 239.849 362.103 239.849 361.945V315.24C239.849 315.047 239.971 314.822 240.226 314.711C240.76 314.479 241.291 314.241 241.818 313.999C242.039 313.897 242.37 313.908 242.661 314.129C247.863 318.083 254.389 320.471 261.592 320.471H279.039C292.323 320.471 304.008 311.697 307.666 298.957L342.275 178.416C348 158.477 332.974 138.644 312.191 138.644H311.779C311.415 138.644 311.176 138.304 311.268 137.983L338.205 44.0114C343.92 24.0749 328.895 4.25196 308.117 4.25196H292.184C280.485 4.25196 269.863 9.89648 263.268 18.8658C263.071 19.1334 262.626 19.3977 261.981 19.3976C261.336 19.3976 260.89 19.1333 260.694 18.8657C254.092 9.88539 243.462 4.25196 231.778 4.25196H220.693C208.997 4.25196 198.356 9.89734 191.756 18.8947C191.559 19.1628 191.112 19.4293 190.461 19.4293C189.81 19.4293 189.363 19.1629 189.166 18.8948C182.573 9.90847 171.94 4.25196 160.229 4.25196H144.293C137.538 4.25196 131.377 6.35202 126.344 9.8768C126.063 10.0737 125.756 10.0811 125.548 9.98933C114.45 5.10022 102.062 2.5 89.211 2.5C65.6315 2.5 43.3852 11.1118 27.1135 28.202C10.8771 45.2552 2.5 68.704 2.5 95.1091C2.5 114.216 6.83468 132.098 15.7531 147.121C15.9043 147.376 15.8902 147.805 15.56 148.12C9.02575 154.345 4.94885 163.126 4.94885 172.854V285.898Z" fill="#3C3C3E" stroke="#3C3C3E" stroke-width="5"/>
</svg>
