<svg width="146" height="26" viewBox="0 0 146 26" fill="none" xmlns="http://www.w3.org/2000/svg">
<g id="GW DC/ 29">
<path d="M17.621 8.55749C17.2385 8.55749 16.9085 8.30171 16.7626 7.94814C15.967 6.02013 14.2363 4.86501 11.8107 4.86501C8.05882 4.86501 5.50614 7.75013 5.50614 12.8555C5.50614 17.9964 7.98758 20.8934 11.87 20.8934C15.3132 20.8934 17.3909 18.9463 17.4622 15.8831H13.3486C12.7156 15.8831 12.2025 15.3699 12.2025 14.7369V13.2061C12.2025 12.5731 12.7156 12.06 13.3486 12.06H21.4823C21.9571 12.06 22.3419 12.4448 22.3419 12.9196V15.0995C22.3419 21.4871 17.9608 25.3695 11.8344 25.3695C5.00748 25.3695 0.388916 20.5966 0.388916 12.903C0.388916 5.01936 5.31617 0.388924 11.7275 0.388924C16.9616 0.388924 21.0497 3.45902 22.0012 7.90753C22.0741 8.24816 21.8051 8.55749 21.4567 8.55749H17.621Z" fill="#5BAEEA"/>
<path d="M28.5974 25.0371C28.2136 25.0371 27.8763 24.7826 27.7709 24.4136L21.212 1.45183C21.1074 1.08575 21.3823 0.721366 21.763 0.721366H25.6082C26.1384 0.721366 26.5994 1.08505 26.7228 1.6007L30.5847 17.7352H30.7985L35.0383 1.57662C35.1705 1.07271 35.6259 0.721366 36.1469 0.721366H39.1273C39.6484 0.721366 40.1039 1.0729 40.236 1.57699L44.476 17.759H44.6779L48.54 1.60105C48.6633 1.08523 49.1244 0.721366 49.6548 0.721366H53.4996C53.8804 0.721366 54.1552 1.08575 54.0507 1.45183L47.4918 24.4136C47.3863 24.7826 47.049 25.0371 46.6652 25.0371H43.032C42.6496 25.0371 42.3131 24.7844 42.2065 24.417L37.7322 8.99678H37.5423L33.068 24.417C32.9614 24.7844 32.6249 25.0371 32.2424 25.0371H28.5974Z" fill="#5BAEEA"/>
<path d="M63.8805 25.0565H56.1678C55.6931 25.0565 55.3082 24.6716 55.3082 24.1969V1.60035C55.3082 1.12561 55.6931 0.740757 56.1678 0.740757H63.9636C71.2892 0.740757 75.7653 5.29995 75.7653 12.8749C75.7653 20.4735 71.2892 25.0565 63.8805 25.0565ZM60.3542 20.7229H63.6668C68.2853 20.7229 70.7193 18.3245 70.7193 12.8749C70.7193 7.46082 68.2853 5.07437 63.6905 5.07437H60.3542V20.7229Z" fill="#5BAEEA"/>
<path d="M94.2833 9.21801C93.8591 9.21801 93.5057 8.90587 93.3892 8.49804C92.742 6.2339 90.8034 4.8844 88.2389 4.8844C84.4514 4.8844 81.9462 7.78139 81.9462 12.8986C81.9462 18.1464 84.487 20.9128 88.2151 20.9128C90.7166 20.9128 92.6599 19.6595 93.3693 17.4729C93.4971 17.0791 93.8463 16.7825 94.2604 16.7844L97.6803 16.8003C98.1964 16.8027 98.5969 17.2576 98.4802 17.7603C97.5292 21.8577 93.8644 25.3889 88.132 25.3889C81.6256 25.3889 76.829 20.8178 76.829 12.8986C76.829 4.96751 81.7088 0.408314 88.132 0.408314C93.4073 0.408314 97.4621 3.25943 98.4941 8.25852C98.5985 8.76427 98.1959 9.21801 97.6795 9.21801H94.2833Z" fill="#5BAEEA"/>
<path d="M108.726 0.740757C109.107 0.740757 109.382 1.10533 109.277 1.47145L102.747 24.2945C102.607 24.7863 102.157 25.1253 101.646 25.1253H98.3987C98.0179 25.1253 97.743 24.7608 97.8478 24.3946L104.378 1.57162C104.518 1.07979 104.968 0.740757 105.479 0.740757H108.726Z" fill="#5BAEEA"/>
<path d="M110.009 25.0371C109.535 25.0371 109.151 24.6539 109.149 24.1803L109.142 22.0236C109.141 21.6213 109.309 21.2369 109.605 20.9645L117.879 13.3541C120.135 11.1814 121.358 9.83976 121.37 7.8926C121.358 5.74361 119.719 4.41383 117.511 4.41383C115.515 4.41383 114.114 5.50319 113.793 7.32913C113.711 7.79838 113.336 8.18942 112.859 8.18942H109.784C109.31 8.18942 108.921 7.80479 108.964 7.33285C109.353 3.06686 112.754 0.388916 117.546 0.388916C122.771 0.388916 126.226 3.35714 126.237 7.57203C126.226 10.3384 124.884 12.618 119.874 17.1535L116.169 20.7272V20.8934H125.424C126.057 20.8934 126.57 21.4066 126.57 22.0396V24.1775C126.57 24.6522 126.185 25.0371 125.71 25.0371H110.009Z" fill="#4DD773"/>
<path d="M128.185 20.6813C127.552 20.6813 127.038 20.1682 127.038 19.5352V16.9891C127.038 16.8008 127.076 16.6143 127.148 16.4404L133.465 1.20579C133.598 0.884741 133.911 0.675449 134.259 0.675449H137.7C138.107 0.675449 138.384 1.08805 138.231 1.46499L132.12 16.4427V16.6326H138.123V10.6534C138.123 10.1787 138.508 9.79384 138.983 9.79384H141.87C142.345 9.79384 142.73 10.1787 142.73 10.6534V16.6326H144.73C145.363 16.6326 145.876 17.1458 145.876 17.7788V19.8217C145.876 20.2964 145.491 20.6813 145.016 20.6813H142.73V23.845C142.73 24.478 142.217 24.9912 141.584 24.9912H138.852C138.377 24.9912 137.992 24.6063 137.992 24.1316V20.6813H128.185Z" fill="#4DD773"/>
</g>
</svg>
