<svg width="18" height="30" viewBox="0 0 18 30" fill="none" xmlns="http://www.w3.org/2000/svg">
<path id="?" d="M5.93359 20.4595C5.97266 15.479 7.37891 13.9556 9.83984 12.4517C11.5 11.3774 12.7891 10.0688 12.7695 8.11572C12.7891 5.92822 11.0703 4.52197 8.94141 4.52197C7.00781 4.52197 5.13281 5.77197 4.99609 8.38916H0.113281C0.25 3.13525 4.15625 0.459473 8.98047 0.459473C14.2539 0.459473 17.8672 3.38916 17.8867 8.0376C17.8672 11.2212 16.2852 13.2915 13.7461 14.7954C11.4805 16.1821 10.543 17.5298 10.5039 20.4595V20.811H5.93359V20.4595ZM5.30859 26.397C5.28906 24.7563 6.67578 23.4087 8.35547 23.3892C9.97656 23.4087 11.3633 24.7563 11.3633 26.397C11.3633 28.0767 9.97656 29.4438 8.35547 29.4438C6.67578 29.4438 5.28906 28.0767 5.30859 26.397Z" fill="white"/>
</svg>
