<svg width="40" height="40" viewBox="0 0 40 40" fill="none" xmlns="http://www.w3.org/2000/svg">
<g id="ticket.fill 1" style="mix-blend-mode:difference">
<g id="Group">
<path id="Vector" d="M0.755859 26.5471C0.755859 27.2096 1.01511 27.6272 1.59122 27.901C3.18993 28.6931 4.08291 29.6004 5.0767 31.5592C5.37916 32.0922 5.82564 32.3658 6.41616 32.3658H30.7137C31.2897 32.3658 31.7363 32.0922 32.0387 31.5592C33.0326 29.6004 33.9254 28.6931 35.5386 27.901C36.1147 27.6272 36.374 27.2096 36.374 26.5471V13.2677C36.374 12.5907 36.1147 12.173 35.5386 11.9138C33.9254 11.1216 33.0326 10.1999 32.0387 8.25548C31.7363 7.70818 31.2897 7.43452 30.7137 7.43452H6.41616C5.82564 7.43452 5.37916 7.70818 5.0767 8.25548C4.08291 10.1999 3.18993 11.1216 1.59122 11.9138C1.01511 12.173 0.755859 12.5907 0.755859 13.2677V26.5471ZM6.6754 26.4751V13.3397C6.6754 12.5619 7.20831 12.029 7.98606 12.029H29.1294C29.9215 12.029 30.4401 12.5619 30.4401 13.3397V26.4751C30.4401 27.2672 29.9215 27.7856 29.1294 27.7856H7.98606C7.20831 27.7856 6.6754 27.2672 6.6754 26.4751ZM8.50457 16.6955H10.4345V13.8294H8.82142C8.60539 13.8294 8.50457 13.959 8.50457 14.1606V16.6955ZM8.50457 21.3332H10.4345V18.4959H8.50457V21.3332ZM8.50457 25.654C8.50457 25.8701 8.60539 25.9853 8.82142 25.9853H10.4345V23.1335H8.50457V25.654ZM26.6953 16.6955H28.6253V14.1606C28.6253 13.959 28.5244 13.8294 28.3083 13.8294H26.6953V16.6955ZM26.6953 21.3332H28.6253V18.4959H26.6953V21.3332ZM26.6953 25.9853H28.3083C28.5244 25.9853 28.6253 25.8701 28.6253 25.654V23.1335H26.6953V25.9853ZM12.2493 25.9853H24.8805V13.8294H12.2493V25.9853Z" fill="url(#paint0_linear_781_153)" fill-opacity="0.85"/>
</g>
</g>
<defs>
<linearGradient id="paint0_linear_781_153" x1="18.5649" y1="7.43452" x2="18.5649" y2="32.3658" gradientUnits="userSpaceOnUse">
<stop stop-color="#5BAEEA"/>
<stop offset="1" stop-color="#4DD773"/>
</linearGradient>
</defs>
</svg>
